# xmcd
#
# Track frame offsets: 
#        150
#        12899
#        28090
#        39003
#        48758
#        59776
#        72446
#        86298
#        98066
#        109344
#
# Disc length: 1597 seconds
#
# Revision: 0
# Processed by: cddbd v1.5.2PL0 Copyright (c) Steve Scherf et al.
# Submitted via: ExactAudioCopy v0.99pb4
#
DISCID=79063b0a
DTITLE=Hoyt Axton - Free Sailin'
DYEAR=1978
DGENRE=Folk
TTITLE0=Bluebird
TTITLE1=Honky Tonk Music
TTITLE2=The Way of the World
TTITLE3=Them Downers
TTITLE4=Jive Man
TTITLE5=Free Sailing
TTITLE6=The Heart You Break (May Be Your Own)
TTITLE7=Left My Gal In the Mountains
TTITLE8=Darrell and Judy
TTITLE9=Endless Road
EXTD=
EXTT0=
EXTT1=
EXTT2=
EXTT3=
EXTT4=
EXTT5=
EXTT6=
EXTT7=
EXTT8=
EXTT9=
PLAYORDER=
